<?xml version="1.0" encoding="UTF-8"?>
<svg version="1.1" xmlns="http://www.w3.org/2000/svg" width="7154" height="1963">
<path d="M0 0 C0 484.44 0 968.88 0 1468 C-16.88839706 1472.50357255 -16.88839706 1472.50357255 -22.92114258 1473.96362305 C-23.58825886 1474.1254904 -24.25537514 1474.28735775 -24.94270706 1474.45413017 C-27.09286712 1474.97519959 -29.24365462 1475.49361587 -31.39453125 1476.01171875 C-32.93990607 1476.38512425 -34.48527018 1476.75857407 -36.03062439 1477.13206482 C-124.78027645 1498.5580908 -213.79399807 1515.02708557 -305 1521.75 C-305.80429443 1521.80934723 -306.60858887 1521.86869446 -307.43725586 1521.92984009 C-312.95577215 1522.3300711 -318.47608873 1522.68306439 -324 1523 C-325.25774231 1523.0725853 -325.25774231 1523.0725853 -326.54089355 1523.14663696 C-344.10336989 1524.12180775 -361.66625862 1524.20198987 -379.25 1524.1875 C-379.97742275 1524.18723312 -380.7048455 1524.18696625 -381.45431137 1524.18669128 C-403.68978518 1524.17646662 -425.83888924 1524.02378371 -448 1522 C-448.72505737 1521.93447937 -449.45011475 1521.86895874 -450.19714355 1521.80145264 C-516.02162334 1515.80734455 -580.39000763 1501.87220957 -641 1475 C-642.43835205 1474.36263916 -642.43835205 1474.36263916 -643.90576172 1473.71240234 C-675.19643153 1459.67749391 -706.92605432 1441.58718928 -732 1418 C-733.28534952 1416.86778783 -734.57657177 1415.74218929 -735.875 1414.625 C-745.36858411 1406.34213613 -754.44336178 1397.68616368 -763.26757812 1388.69555664 C-767.66632335 1384.23771876 -772.24388447 1380.07258671 -777 1376 C-782.3481906 1371.34239355 -787.4641408 1366.70878564 -792.03515625 1361.27734375 C-794.04798656 1358.94438138 -796.13967571 1356.70874999 -798.25439453 1354.46875 C-804.66477553 1347.6545813 -810.48245265 1340.55578449 -816 1333 C-816.45842285 1332.37673828 -816.9168457 1331.75347656 -817.38916016 1331.11132812 C-871.87123999 1256.69857882 -898.95191663 1164.67570345 -910.3225708 1005.3895874 C-910.30913516 1002.11821309 -910.31442055 998.8469749 -910.31943321 995.57558537 C-910.35350903 966.06991058 -909.35016505 936.54527056 -906.25 907.1875 C-906.16729858 906.3846759 -906.08459717 905.58185181 -905.99938965 904.75469971 C-898.19172931 829.51278248 -879.94926965 756.8176802 -846 689 C-845.55865723 688.10941895 -845.11731445 687.21883789 -844.66259766 686.30126953 C-834.12720091 665.13941474 -821.7482945 644.93399181 -807.53369141 626.04394531 C-805.98948258 623.98598348 -804.46740655 621.91314983 -802.94921875 619.8359375 C-796.36023274 610.86537745 -789.39712621 602.31520038 -782 594 C-781.54802246 593.49017578 -781.09604492 592.98035156 -780.63037109 592.45507812 C-775.20003029 586.35660119 -769.56906062 580.47642682 -763.8125 574.6875 C-763.25449707 574.12482422 -762.69649414 573.56214844 -762.12158203 572.98242188 C-738.48737077 549.43833814 -710.39131942 530.00764568 -681.13134766 514.15820312 C-679.66104637 513.35922153 -678.19479389 512.55275958 -676.73193359 511.74023438 C-641.01040929 491.92348574 -601.70353696 479.02078183 -561.6875 471.3125 C-560.23404175 471.02669067 -560.23404175 471.02669067 -558.7512207 470.73510742 C-555.17740453 470.08015079 -551.59518701 469.52122709 -548 469 C-547.13695251 468.87225189 -546.27390503 468.74450378 -545.38470459 468.61288452 C-525.16991362 465.72557546 -505.16609819 465.56851202 -484.79516602 465.6774292 C-481.41457419 465.69080564 -478.03411545 465.68559544 -474.65350914 465.68056774 C-447.96219027 465.6505656 -421.39263792 466.52215238 -394.875 469.8125 C-393.835784 469.93946762 -393.835784 469.93946762 -392.77557373 470.06900024 C-338.57913571 476.7217194 -288.43462408 491.93050876 -239 515 C-238.505 278.39 -238.505 278.39 -238 37 C-122.30206623 17.13267804 -122.30206623 17.13267804 -82.60656738 10.60516357 C-78.01058368 9.84802273 -73.41541592 9.08598309 -68.82020283 8.32418156 C-64.26416523 7.56952524 -59.70764065 6.81784416 -55.15096092 6.06707573 C-53.05118019 5.72076502 -50.95154382 5.37357742 -48.85207558 5.02537727 C-39.75117451 3.51737976 -30.64716722 2.01513145 -21.50463867 0.77905273 C-20.37990646 0.625327 -19.25517426 0.47160126 -18.09635925 0.31321716 C-12.08089507 -0.14673923 -6.03302323 0 0 0 Z M-478 673 C-479.56596924 673.32145996 -479.56596924 673.32145996 -481.16357422 673.64941406 C-522.06371053 682.37426848 -558.72365223 701.18526902 -589 730 C-589.84175781 730.76570312 -590.68351562 731.53140625 -591.55078125 732.3203125 C-647.78754993 785.23848399 -665.43562408 881.49330603 -668 955 C-668.18922861 963.20729855 -668.19565322 971.41591432 -668.1875 979.625 C-668.18689575 980.75039185 -668.1862915 981.87578369 -668.18566895 983.03527832 C-668.05702058 1071.51711049 -650.82948339 1168.26935885 -589.14453125 1235.62890625 C-587.24348767 1237.73078868 -585.43411815 1239.88205927 -583.625 1242.0625 C-579.28512004 1247.01530151 -574.19685751 1250.98901294 -569 1255 C-568.41573242 1255.45391113 -567.83146484 1255.90782227 -567.22949219 1256.37548828 C-510.96904706 1299.90579074 -454.98343204 1314.40990934 -384.79614258 1314.31567383 C-381.07661782 1314.31106345 -377.35742172 1314.31789986 -373.63793945 1314.33618164 C-342.58504091 1314.48713262 -311.91707223 1313.33965954 -281.25 1308.0625 C-279.6652137 1307.8001311 -278.0802483 1307.538842 -276.49511719 1307.27856445 C-272.68901332 1306.65022027 -268.88579024 1306.0063039 -265.08349609 1305.35534668 C-261.91125574 1304.81431131 -258.73671212 1304.28713758 -255.5625 1303.7578125 C-246.52594985 1302.68470706 -246.52594985 1302.68470706 -238 1300 C-237.32036294 1271.3088297 -236.79846436 1242.6218665 -236.52788162 1213.92394257 C-236.49901608 1210.89681604 -236.46900374 1207.86970269 -236.43869019 1204.84259033 C-236.18225849 1179.19481889 -235.96725734 1153.54684105 -235.78515625 1127.8984375 C-235.77623163 1126.64440502 -235.76730701 1125.39037254 -235.75811195 1124.09833908 C-235.67793799 1112.81706521 -235.59814461 1101.53578858 -235.52013105 1090.25449955 C-235.25711459 1052.25882486 -234.9239726 1014.26428604 -234.52651811 976.26976919 C-234.49213295 972.97915489 -234.45790438 969.68853899 -234.42372704 966.39792252 C-234.01448541 927.00332878 -234.01448541 927.00332878 -233.79763794 907.42987061 C-233.48991221 879.62023034 -233.20947957 851.81057086 -233 824 C-232.99259702 823.03118834 -232.98519403 822.06237667 -232.97756672 821.06420708 C-232.88363868 808.68134915 -232.81127406 796.29865225 -232.77310371 783.91549301 C-232.76193303 780.42235334 -232.74400126 776.92935649 -232.71983147 773.43628311 C-232.69233212 769.40098682 -232.67954534 765.36591234 -232.67832446 761.33052492 C-232.67554336 759.86982466 -232.66774146 758.40912312 -232.65430188 756.94848204 C-232.54993414 745.00730518 -234.24416715 735.87132108 -240.625 725.75 C-241.20701172 724.74839844 -241.20701172 724.74839844 -241.80078125 723.7265625 C-247.0322436 715.31001423 -255.71593402 711.34357086 -264.4375 707.25 C-265.3437915 706.82444824 -266.25008301 706.39889648 -267.18383789 705.96044922 C-311.26154738 685.63184399 -362.62103543 669.17007143 -411.45703125 668.76171875 C-412.43008713 668.7519249 -413.40314301 668.74213104 -414.40568542 668.73204041 C-435.91450601 668.56018373 -456.85138088 668.64089639 -478 673 Z " fill="#FF6934" transform="translate(3125,8)"/>
<path d="M0 0 C3.1699151 -0.00450138 6.33980892 -0.01220667 9.50971603 -0.02053452 C30.09774217 -0.06727221 50.65153268 0.01889404 71.21311569 1.15167618 C71.94235622 1.19157417 72.67159676 1.23147217 73.42293549 1.27257919 C130.21198466 4.47543406 187.21331328 15.81668625 238.84592819 40.24542618 C239.75310593 40.66759415 240.66028366 41.08976212 241.59495163 41.52472305 C270.15757813 54.89617439 295.61625573 73.01589168 318.84592819 94.24542618 C319.78178757 95.07687149 320.71764694 95.9083168 321.68186569 96.76495743 C333.07742335 106.97908588 343.46700774 118.14603411 352.84592819 130.24542618 C353.38975143 130.94377579 353.93357468 131.6421254 354.49387741 132.36163712 C412.59797941 207.3457537 431.1860922 298.95575614 438.38964462 428.23445511 C438.41110196 429.00526752 438.4325593 429.77607992 438.45466686 430.57025028 C438.88611117 446.3702967 438.98579099 462.16239008 438.96167836 477.96777591 C438.95691665 481.83461021 438.95811939 485.70144456 438.95837975 489.56828117 C438.95792441 497.16324746 438.95186234 504.75819909 438.94370203 512.3531606 C438.93705738 518.6495083 438.93273256 524.94585421 438.92977333 531.24220467 C438.89037559 613.54689952 438.7182454 695.85150033 438.506567 778.1559124 C438.50249501 779.73938478 438.50249501 779.73938478 438.49834075 781.3548465 C438.49562304 782.41137896 438.49290533 783.46791143 438.49010527 784.55646002 C438.48738547 785.61388532 438.48466567 786.67131061 438.48186345 787.7607791 C438.47636287 789.89879214 438.47085762 792.03680518 438.46534769 794.1748182 C438.42030624 811.68719469 438.37989429 829.19957886 438.34127558 846.71197058 C438.3007024 865.08463326 438.25664809 883.45728486 438.20904964 901.82993072 C438.18278903 911.99391855 438.15787156 922.15790499 438.13685417 932.32190514 C438.11918155 940.85893721 438.09825678 949.3959539 438.07325978 957.93296779 C438.06069738 962.25368762 438.04950855 966.57439743 438.04250908 970.89513016 C438.03603201 974.87031484 438.02502638 978.84546403 438.01089489 982.82062864 C438.00461163 984.87920821 438.00272155 986.9377999 438.00118262 988.99638849 C437.94076372 1003.43548955 437.3277156 1017.79180384 436.84592819 1032.24542618 C359.62592819 1032.24542618 282.40592819 1032.24542618 202.84592819 1032.24542618 C201.68973264 908.53250194 201.68973264 908.53250194 201.40037155 853.47565651 C201.3487785 843.75865463 201.29401239 834.04167183 201.23869038 824.32469056 C201.14815513 808.41961406 201.05886637 792.51453092 200.97092819 776.60943985 C200.96319807 775.21150375 200.96319807 775.21150375 200.95531178 773.78532652 C200.89767446 763.35656197 200.84037241 752.92779561 200.78342819 742.49902725 C200.76259896 738.68524549 200.74176632 734.87146375 200.72092819 731.05768204 C200.71578233 730.11576717 200.71063646 729.1738523 200.70533466 728.20339455 C200.61823814 712.27326158 200.52871061 696.34314322 200.43741226 680.41303378 C200.38698796 671.59945431 200.3376592 662.78587191 200.29148483 653.97226906 C200.11188452 619.77325292 199.87821643 585.57651631 199.39695549 551.38023032 C199.36619789 549.18795238 199.33607531 546.99566643 199.30604172 544.80337846 C202.13037241 390.39746875 202.13037241 390.39746875 133.08420944 249.47589493 C92.01090955 211.92020762 29.86207532 210.77579539 -22.27907181 210.99542618 C-23.66981841 210.9993971 -25.06056551 211.00319921 -26.45131302 211.00683975 C-62.26953496 211.11278844 -97.56382718 213.66453442 -133.20750046 217.00497437 C-136.09253821 217.27529804 -138.97781598 217.54301672 -141.8630867 217.81084061 C-143.86361888 217.99799253 -145.86371208 218.18981842 -147.8637886 218.38177872 C-149.08654495 218.4954982 -150.3093013 218.60921768 -151.56911087 218.72638321 C-153.15710495 218.87721863 -153.15710495 218.87721863 -154.77717972 219.03110123 C-158.89514327 219.29246058 -163.0278226 219.24542618 -167.15407181 219.24542618 C-167.15407181 487.53542618 -167.15407181 755.82542618 -167.15407181 1032.24542618 C-245.69407181 1032.24542618 -324.23407181 1032.24542618 -405.15407181 1032.24542618 C-405.15407181 708.51542618 -405.15407181 384.78542618 -405.15407181 51.24542618 C-303.0909404 28.87542477 -201.54057129 8.48703716 -97.15407181 2.24542618 C-96.31023941 2.19321915 -95.46640701 2.14101212 -94.59700394 2.08722305 C-63.08759471 0.15006813 -31.55750539 0.03708067 0 0 Z " fill="#FF6934" transform="translate(3838.1540718078613,472.7545738220215)"/>
<path d="M0 0 C16.75804812 14.62510988 27.29360041 39.42334362 29.42480469 61.09814453 C31.14052879 91.14931212 20.60929856 117.5936641 0.72558594 139.99365234 C-3.759613 144.87211288 -8.3976441 149.59652022 -13.07128906 154.29345703 C-13.79267059 155.02062424 -13.79267059 155.02062424 -14.52862549 155.76248169 C-20.43321122 161.6903495 -26.52235289 167.1994644 -33.05322266 172.4284668 C-35.79724854 174.63863659 -38.37339968 176.95013839 -40.94628906 179.35595703 C-44.60003555 182.72262344 -48.32548325 185.92883323 -52.19628906 189.04345703 C-55.96072174 192.08170127 -59.42836328 195.21922002 -62.79003906 198.69189453 C-65.12924338 201.04213283 -67.63513276 203.17604752 -70.14550781 205.34033203 C-72.95402435 207.80076418 -75.70072587 210.32589981 -78.44628906 212.85595703 C-84.08050263 218.03783294 -89.79608185 223.10264296 -95.62597656 228.06298828 C-102.46255888 233.8862507 -109.18059233 239.80224846 -115.77441406 245.89892578 C-118.63142845 248.52620948 -121.53928408 251.08485394 -124.46972656 253.62939453 C-131.07231331 259.3968715 -137.5237421 265.33461097 -143.97998047 271.26464844 C-148.77166822 275.66254098 -153.60501843 280.01282357 -158.44628906 284.35595703 C-160.11321553 285.85566831 -161.77988055 287.35567024 -163.44628906 288.85595703 C-164.27257812 289.59845703 -165.09886719 290.34095703 -165.95019531 291.10595703 C-167.6085189 292.60078392 -169.26221348 294.10076284 -170.91113281 295.60595703 C-175.08152767 299.40081871 -179.29789234 303.07693594 -183.69628906 306.60595703 C-189.45575332 311.26254515 -194.82577605 316.2842988 -200.22363281 321.34814453 C-203.26690847 324.20072114 -206.37573041 326.96521913 -209.53222656 329.69189453 C-213.55458806 333.18888636 -217.49008473 336.78455069 -221.44628906 340.35595703 C-223.11269757 341.85624382 -224.77936259 343.35624575 -226.44628906 344.85595703 C-227.27386719 345.60103516 -228.10144531 346.34611328 -228.95410156 347.11376953 C-230.59368785 348.58888321 -232.23428561 350.06287355 -233.87597656 351.53564453 C-238.46659563 355.65693513 -243.03073151 359.80472567 -247.57128906 363.98095703 C-251.46302224 367.5592456 -255.39309831 371.08427191 -259.38769531 374.54736328 C-261.93585556 376.78606953 -264.44039499 379.07005915 -266.94628906 381.35595703 C-270.73291904 384.80923857 -274.55105226 388.21694754 -278.41894531 391.57861328 C-280.78118079 393.6495519 -283.11424759 395.75108551 -285.44628906 397.85595703 C-290.78191543 402.66610504 -296.16215787 407.41575941 -301.63378906 412.07080078 C-307.96707699 417.46353633 -314.22088665 422.91390471 -320.328125 428.56201172 C-323.0010786 431.03391038 -325.69447891 433.47218733 -328.44628906 435.85595703 C-331.83679623 438.79439658 -335.14599984 441.81707685 -338.44628906 444.85595703 C-341.74657829 447.89483721 -345.05578189 450.91751749 -348.44628906 453.85595703 C-352.32445919 457.21918341 -356.10156717 460.68931374 -359.87939453 464.1640625 C-364.70214744 468.59820201 -369.57049495 472.98024437 -374.44628906 477.35595703 C-375.29191406 478.11908203 -376.13753906 478.88220703 -377.00878906 479.66845703 C-381.41646707 483.64611767 -385.84879025 487.58933156 -390.32910156 491.48486328 C-392.83647202 493.70078662 -395.29530495 495.96636611 -397.75878906 498.23095703 C-401.33890119 501.50125176 -404.97545143 504.6362232 -408.75878906 507.66845703 C-413.81012976 511.7397944 -418.52102798 516.09923115 -423.23876953 520.54516602 C-427.68645936 524.71311537 -432.29800319 528.55988881 -437.05566406 532.37158203 C-439.81363282 534.66087636 -442.29966933 537.11929561 -444.79003906 539.69189453 C-447.12924338 542.04213283 -449.63513276 544.17604752 -452.14550781 546.34033203 C-454.95401927 548.80075972 -457.70090785 551.32570696 -460.44628906 553.85595703 C-463.74642253 556.89500238 -467.05578667 559.91752162 -470.44628906 562.85595703 C-474.32445919 566.21918341 -478.10156717 569.68931374 -481.87939453 573.1640625 C-486.70214744 577.59820201 -491.57049495 581.98024437 -496.44628906 586.35595703 C-497.29191406 587.11908203 -498.13753906 587.88220703 -499.00878906 588.66845703 C-503.43950153 592.66690487 -507.89232681 596.63467523 -512.39550781 600.55126953 C-514.70717703 602.58553844 -516.98160336 604.65818013 -519.25878906 606.73095703 C-522.65712458 609.80342476 -526.12219429 612.74038325 -529.69628906 615.60595703 C-535.45575332 620.26254515 -540.82577605 625.2842988 -546.22363281 630.34814453 C-549.26690847 633.20072114 -552.37573041 635.96521913 -555.53222656 638.69189453 C-559.55458806 642.18888636 -563.49008473 645.78455069 -567.44628906 649.35595703 C-569.11269757 650.85624382 -570.77936259 652.35624575 -572.44628906 653.85595703 C-573.27128906 654.59845703 -574.09628906 655.34095703 -574.94628906 656.10595703 C-577.44628906 658.35595703 -579.94628906 660.60595703 -582.44628906 662.85595703 C-583.68765625 663.97357422 -583.68765625 663.97357422 -584.95410156 665.11376953 C-586.59368785 666.58888321 -588.23428561 668.06287355 -589.87597656 669.53564453 C-594.46659609 673.65693555 -599.03070288 677.80475645 -603.57128906 681.98095703 C-607.48879564 685.58249585 -611.44270559 689.13383914 -615.46191406 692.62158203 C-620.33990532 696.88502321 -625.13489959 701.24539918 -629.91894531 705.61376953 C-634.10837684 709.42475796 -638.34524079 713.11842907 -642.75878906 716.66845703 C-648.21005008 721.07733811 -653.32342404 725.79119683 -658.44628906 730.57080078 C-661.40773074 733.3319205 -664.43614544 736.00650354 -667.49707031 738.65673828 C-671.52724568 742.17001741 -675.47775518 745.77342037 -679.44628906 749.35595703 C-681.11269757 750.85624382 -682.77936259 752.35624575 -684.44628906 753.85595703 C-685.27128906 754.59845703 -686.09628906 755.34095703 -686.94628906 756.10595703 C-692.7796224 761.35595703 -698.61295573 766.60595703 -704.44628906 771.85595703 C-705.27257812 772.59974609 -706.09886719 773.34353516 -706.95019531 774.10986328 C-708.60332249 775.59741904 -710.25696162 777.08440607 -711.91113281 778.57080078 C-716.31141971 782.52619295 -720.69899282 786.49462901 -725.07128906 790.48095703 C-728.79424974 793.87020695 -732.55223622 797.21030456 -736.35253906 800.51220703 C-738.91047933 802.7647216 -741.42807886 805.05912795 -743.94628906 807.35595703 C-749.43086328 812.35284681 -754.97897738 817.25908769 -760.62988281 822.06689453 C-767.46556563 827.88840367 -774.18193644 833.80349123 -780.77441406 839.89892578 C-783.62873719 842.52373462 -786.53343954 845.08034381 -789.46191406 847.62158203 C-793.50003597 851.15096417 -797.46543587 854.76229929 -801.44628906 858.35595703 C-803.11269757 859.85624382 -804.77936259 861.35624575 -806.44628906 862.85595703 C-807.27128906 863.59845703 -808.09628906 864.34095703 -808.94628906 865.10595703 C-811.44628906 867.35595703 -813.94628906 869.60595703 -816.44628906 871.85595703 C-817.27386719 872.60103516 -818.10144531 873.34611328 -818.95410156 874.11376953 C-820.59368785 875.58888321 -822.23428561 877.06287355 -823.87597656 878.53564453 C-828.46659609 882.65693555 -833.03070288 886.80475645 -837.57128906 890.98095703 C-841.48879564 894.58249585 -845.44270559 898.13383914 -849.46191406 901.62158203 C-854.33990532 905.88502321 -859.13489959 910.24539918 -863.91894531 914.61376953 C-868.12959659 918.44406086 -872.38963045 922.1576541 -876.82128906 925.73095703 C-880.83453017 928.97546463 -884.6706486 932.34322383 -888.44628906 935.85595703 C-893.07612889 940.16340956 -897.86114726 944.20268202 -902.79003906 948.16845703 C-905.4588824 950.36632801 -908.01899566 952.64923219 -910.57128906 954.98095703 C-915.01178571 959.03006375 -919.64308232 962.747751 -924.44628906 966.35595703 C-923.02547102 970.71260905 -920.89019363 973.35482678 -917.75878906 976.66845703 C-914.74684688 979.88722786 -911.78081353 983.10523457 -908.94628906 986.48095703 C-902.41064872 993.9567591 -894.65472432 1000.06100901 -886.83740234 1006.12426758 C-882.16496415 1009.75719254 -877.63126589 1013.52843296 -873.13061523 1017.37109375 C-869.76836849 1020.241017 -866.3760625 1023.06647414 -862.94628906 1025.85595703 C-851.34114493 1035.31137837 -840.03131557 1045.12435952 -828.67578125 1054.87646484 C-817.70550814 1064.29599807 -806.73721406 1073.71334706 -795.52441406 1082.84423828 C-790.90650548 1086.61240481 -786.31025326 1090.40677776 -781.71166992 1094.19848633 C-777.73843083 1097.47314366 -773.75503523 1100.73437595 -769.75878906 1103.98095703 C-763.83259479 1108.82396473 -758.0376478 1113.81640155 -752.24023438 1118.81201172 C-749.91109266 1120.81656972 -747.57589523 1122.81399796 -745.24072266 1124.81152344 C-736.6428257 1132.16833688 -728.09583801 1139.58342227 -719.55078125 1147.00146484 C-706.37200328 1158.44029069 -693.19623187 1169.85325382 -679.62597656 1180.828125 C-672.03363154 1186.97043799 -664.46821187 1193.13328569 -657.03540039 1199.46826172 C-653.64678965 1202.35331 -650.21777884 1205.18082245 -646.75878906 1207.98095703 C-642.36258541 1211.55645118 -638.15643047 1215.29686912 -633.96972656 1219.11376953 C-631.39546548 1221.40111607 -628.75339417 1223.57143974 -626.07128906 1225.73095703 C-621.51928599 1229.41102712 -617.21376658 1233.28118587 -612.93164062 1237.26513672 C-608.79401318 1241.09210734 -604.47456428 1244.65078981 -600.08300781 1248.18408203 C-597.52208878 1250.29352052 -595.07505452 1252.48483351 -592.63378906 1254.73095703 C-588.22836964 1258.74663951 -583.61833035 1262.40657915 -578.90893555 1266.05200195 C-573.94444507 1269.91476336 -569.16955408 1273.96774185 -564.41601562 1278.08569336 C-561.14509307 1280.91438792 -557.84176636 1283.67619309 -554.44628906 1286.35595703 C-548.57380432 1291.00020967 -542.9274849 1295.90052918 -537.26074219 1300.79150391 C-534.32842545 1303.31979853 -531.38692865 1305.83735368 -528.44628906 1308.35595703 C-527.28481954 1309.35203773 -526.12336123 1310.34813151 -524.96191406 1311.34423828 C-522.57937866 1313.3866967 -520.19360531 1315.42529085 -517.80566406 1317.46142578 C-512.56852111 1321.93136642 -507.35196432 1326.40890893 -502.25878906 1331.04345703 C-498.09906697 1334.8176439 -493.79594757 1338.37381816 -489.43066406 1341.90673828 C-486.05867013 1344.67406838 -482.74976756 1347.50757469 -479.44628906 1350.35595703 C-474.51610223 1354.60145098 -469.53944156 1358.77658646 -464.48925781 1362.87939453 C-459.8792157 1366.63134152 -455.29734951 1370.41737234 -450.71142578 1374.19873047 C-446.73823713 1377.47326839 -442.75494616 1380.73444831 -438.75878906 1383.98095703 C-432.83421392 1388.82264155 -427.04056966 1393.81349261 -421.24462891 1398.80761719 C-418.31626736 1401.32888638 -415.38099557 1403.84207946 -412.44628906 1406.35595703 C-411.27958791 1407.3559168 -410.11292128 1408.35591684 -408.94628906 1409.35595703 C-408.36878906 1409.85095703 -407.79128906 1410.34595703 -407.19628906 1410.85595703 C-387.94628907 1427.35595703 -387.94628907 1427.35595703 -386.19604492 1428.85620117 C-385.03023802 1429.85544099 -383.86438521 1430.85462726 -382.69848633 1431.85375977 C-379.76828508 1434.36495165 -376.83890615 1436.87709096 -373.91113281 1439.39111328 C-366.65110745 1445.62331258 -359.36588701 1451.82442055 -352.05517578 1457.99707031 C-349.35056617 1460.28141889 -346.64856779 1462.56885211 -343.94628906 1464.85595703 C-342.86296807 1465.77263829 -341.77963475 1466.68930496 -340.69628906 1467.60595703 C-260.25878906 1535.66845703 -260.25878906 1535.66845703 -100.19628906 1671.10595703 C-99.66011963 1671.55962646 -99.1239502 1672.0132959 -98.5715332 1672.48071289 C-97.48733668 1673.398135 -96.40318961 1674.31561555 -95.3190918 1675.2331543 C-92.62436596 1677.51374247 -89.92881094 1679.79333518 -87.23144531 1682.07080078 C-82.17524247 1686.34181228 -77.1291854 1690.62328365 -72.11206055 1694.94018555 C-66.56663315 1699.71144557 -60.97024195 1704.40121881 -55.29003906 1709.01220703 C-51.96942096 1711.74898019 -48.70591346 1714.5470896 -45.44628906 1717.35595703 C-39.5252209 1722.45556823 -33.51858177 1727.43685938 -27.44628906 1732.35595703 C-1.66413059 1753.24180054 24.06464844 1774.60915578 29.55371094 1809.35595703 C30.88535297 1837.97077646 24.98404278 1869.06328589 5.21386719 1890.94580078 C-11.19701519 1906.5055515 -32.32579352 1913.57053737 -54.44628906 1915.35595703 C-55.36522949 1915.43313965 -56.28416992 1915.51032227 -57.23095703 1915.58984375 C-70.41598153 1916.61164402 -81.88017755 1916.8002428 -94.44628906 1912.35595703 C-95.47367188 1912.00404297 -96.50105469 1911.65212891 -97.55957031 1911.28955078 C-116.91872796 1903.93050675 -132.39666883 1890.15144225 -147.44628906 1876.35595703 C-148.77581409 1875.1849523 -150.1090186 1874.01810874 -151.44628906 1872.85595703 C-154.47383674 1870.21906067 -157.46566186 1867.54579134 -160.44628906 1864.85595703 C-168.09626045 1857.95939192 -175.89310205 1851.24178879 -183.71972656 1844.54736328 C-186.1880328 1842.43564769 -188.65132216 1840.31831063 -191.11035156 1838.19580078 C-197.00425292 1833.11355788 -202.92881285 1828.10106035 -209.03222656 1823.27001953 C-216.34603849 1817.47104243 -223.50044392 1811.48436661 -230.61181641 1805.44042969 C-234.00524923 1802.56087963 -237.42869889 1799.72413231 -240.88378906 1796.91845703 C-246.89762083 1792.02023464 -252.7726231 1786.96682457 -258.64794922 1781.90429688 C-261.57631076 1779.38302768 -264.51158255 1776.8698346 -267.44628906 1774.35595703 C-268.61299021 1773.35599726 -269.77965685 1772.35599722 -270.94628906 1771.35595703 C-271.52378906 1770.86095703 -272.10128906 1770.36595703 -272.69628906 1769.85595703 C-277.94628907 1765.35595703 -277.94628907 1765.35595703 -279.6965332 1763.85571289 C-280.86234011 1762.85647307 -282.02819292 1761.8572868 -283.1940918 1760.8581543 C-286.12429304 1758.34696242 -289.05367197 1755.8348231 -291.98144531 1753.32080078 C-299.24147068 1747.08860149 -306.52669112 1740.88749352 -313.83740234 1734.71484375 C-316.54201196 1732.43049518 -319.24401034 1730.14306195 -321.94628906 1727.85595703 C-323.02961005 1726.93927577 -324.11294338 1726.0226091 -325.19628906 1725.10595703 C-378.82128906 1679.73095703 -432.44628906 1634.35595703 -539.69628906 1543.60595703 C-540.2324585 1543.1522876 -540.76862793 1542.69861816 -541.32104492 1542.23120117 C-542.40524144 1541.31377906 -543.48938852 1540.39629851 -544.57348633 1539.47875977 C-547.26821217 1537.19817159 -549.96376718 1534.91857888 -552.66113281 1532.64111328 C-558.31899732 1527.86187377 -563.95711649 1523.06147193 -569.57128906 1518.23095703 C-573.63257651 1514.73780597 -577.72147493 1511.29147307 -581.88378906 1507.91845703 C-586.98936371 1503.77534712 -591.9442896 1499.47365253 -596.89916992 1495.15307617 C-600.53366757 1491.99129866 -604.20149749 1488.88745497 -607.94628906 1485.85595703 C-613.03438112 1481.73702537 -617.9663273 1477.45448369 -622.89941406 1473.15283203 C-626.53385405 1469.99116472 -630.20158724 1466.88738231 -633.94628906 1463.85595703 C-639.03438112 1459.73702537 -643.9663273 1455.45448369 -648.89941406 1451.15283203 C-652.53385405 1447.99116472 -656.20158724 1444.88738231 -659.94628906 1441.85595703 C-665.03438112 1437.73702537 -669.9663273 1433.45448369 -674.89941406 1429.15283203 C-678.53385405 1425.99116472 -682.20158724 1422.88738231 -685.94628906 1419.85595703 C-690.3629785 1416.28054177 -694.66409292 1412.58996355 -698.94628906 1408.85595703 C-704.100668 1404.36208167 -709.3181642 1399.97158192 -714.63378906 1395.66845703 C-717.96911583 1392.92607724 -721.23959599 1390.11402323 -724.50878906 1387.29345703 C-729.27221782 1383.18793913 -734.09116839 1379.17928776 -739.02441406 1375.27783203 C-742.60678231 1372.43504949 -746.13782311 1369.53069239 -749.67285156 1366.62939453 C-751.47646597 1365.15093878 -753.28358009 1363.67673864 -755.09472656 1362.20751953 C-760.89385584 1357.49678988 -766.59029429 1352.68147814 -772.24755859 1347.80249023 C-775.83055959 1344.71906588 -779.45545628 1341.70090904 -783.13378906 1338.73095703 C-787.82079841 1334.92919542 -792.26119584 1330.90719888 -796.70019531 1326.82080078 C-799.36504073 1324.42888406 -802.09460731 1322.16340819 -804.88378906 1319.91845703 C-808.87855607 1316.69650413 -812.69158331 1313.34915601 -816.44628906 1309.85595703 C-821.00220683 1305.6219684 -825.69900299 1301.6266385 -830.54394531 1297.72705078 C-833.83590865 1295.03765408 -837.04656416 1292.26450108 -840.25878906 1289.48095703 C-844.89288958 1285.47509094 -849.60472925 1281.6081998 -854.44628906 1277.85595703 C-859.90826191 1273.62288981 -865.18557977 1269.21643399 -870.40942383 1264.69360352 C-873.85676119 1261.71061916 -877.33935526 1258.78651219 -880.88378906 1255.91845703 C-887.21016081 1250.77770107 -893.34163606 1245.41964845 -899.48486328 1240.06298828 C-901.44855876 1238.35398171 -903.41719365 1236.65085954 -905.38769531 1234.94970703 C-910.86893179 1230.21616179 -916.3393355 1225.48053089 -921.69628906 1220.60595703 C-925.81646008 1216.87141779 -930.08362116 1213.35919136 -934.40722656 1209.86376953 C-937.91686057 1206.96764481 -941.33664289 1203.97933379 -944.75878906 1200.98095703 C-950.14668217 1196.27056704 -955.64971861 1191.7671005 -961.30786133 1187.38647461 C-965.92219528 1183.80306505 -970.38706438 1180.06772308 -974.82910156 1176.27392578 C-978.81954615 1172.87031128 -982.88054571 1169.57207979 -986.98925781 1166.31298828 C-990.57785179 1163.45466462 -994.12222007 1160.54330677 -997.66894531 1157.63330078 C-999.4865025 1156.14295501 -1001.30671654 1154.6558421 -1003.12988281 1153.17236328 C-1008.67719499 1148.65561128 -1014.16156658 1144.07266605 -1019.61206055 1139.44018555 C-1023.00544286 1136.56075435 -1026.42878824 1133.72405976 -1029.88378906 1130.91845703 C-1071.79660147 1096.73122833 -1105.16290681 1062.61338985 -1111.44628906 1006.35595703 C-1111.60466635 1002.70228892 -1111.63388884 999.05179769 -1111.64941406 995.39501953 C-1111.65511414 994.33221771 -1111.66081421 993.26941589 -1111.66668701 992.17440796 C-1111.67611515 989.92015569 -1111.68266229 987.66588977 -1111.68652344 985.41162109 C-1111.69608041 982.05425791 -1111.72706109 978.69754785 -1111.75878906 975.34033203 C-1112.03994131 918.20198878 -1093.82085012 870.25013861 -1053.80834961 829.60351562 C-1049.47747255 825.24329751 -1045.05391672 821.0469197 -1040.37207031 817.06298828 C-1038.13492296 815.07995908 -1036.04574255 812.98402317 -1033.94628906 810.85595703 C-1030.68243994 807.55331853 -1027.33214716 804.45545055 -1023.80957031 801.43408203 C-1020.6292478 798.63750091 -1017.54154454 795.74602919 -1014.44628906 792.85595703 C-1008.48931561 787.30427289 -1002.43574699 781.90477269 -996.23925781 776.62158203 C-995.0372166 775.59579611 -993.83540035 774.56974653 -992.63378906 773.54345703 C-992.02970215 773.02750977 -991.42561523 772.5115625 -990.80322266 771.97998047 C-986.0851563 767.93592359 -981.4761159 763.78978003 -976.89550781 759.59033203 C-974.12399383 757.06193331 -971.30501904 754.59411703 -968.47363281 752.13330078 C-965.2436583 749.30162756 -962.0643825 746.41393196 -958.87597656 743.53564453 C-956.79022726 741.66450609 -954.68811278 739.81670872 -952.57128906 737.98095703 C-949.14296714 734.99679017 -945.79008105 731.93407219 -942.44628906 728.85595703 C-938.49034798 725.21433032 -934.50067428 721.6209633 -930.43847656 718.09814453 C-928.08608271 716.04095304 -925.7659394 713.94998789 -923.44628906 711.85595703 C-918.12294213 707.05687911 -912.75765568 702.31517753 -907.29394531 697.67626953 C-900.7107531 692.07953823 -894.24344967 686.39506721 -887.92016602 680.50561523 C-885.13272592 677.90979294 -882.32845865 675.34619979 -879.44628906 672.85595703 C-875.33424613 669.29912665 -871.35859286 665.60012019 -867.37084961 661.90551758 C-862.43961907 657.3398278 -857.45154173 652.84033788 -852.44628906 648.35595703 C-850.73782917 646.81443062 -849.02949623 645.2727635 -847.32128906 643.73095703 C-842.02403315 638.96670674 -836.68530994 634.25777663 -831.25878906 629.64111328 C-824.42400499 623.82135844 -817.70929754 617.90718002 -811.11816406 611.81298828 C-808.26384094 609.18817944 -805.35913859 606.63157026 -802.43066406 604.09033203 C-799.25864589 601.31793819 -796.13630003 598.49084498 -793.00878906 595.66845703 C-790.53363576 593.4347821 -788.05260595 591.20777987 -785.57128906 588.98095703 C-781.79890631 585.58818513 -778.05547798 582.16556827 -774.32128906 578.73095703 C-770.45261085 575.17342604 -766.54294781 571.67306128 -762.57128906 568.23095703 C-759.8280545 565.81045595 -757.13746 563.33393294 -754.44628906 560.85595703 C-750.51344065 557.2350557 -746.54414894 553.66636778 -742.50488281 550.16455078 C-739.95672256 547.92584453 -737.45218313 545.64185491 -734.94628906 543.35595703 C-729.46171484 538.35906725 -723.91360075 533.45282637 -718.26269531 528.64501953 C-711.42701249 522.82351039 -704.71064169 516.90842283 -698.11816406 510.81298828 C-695.26653233 508.19065443 -692.36498835 505.63607384 -689.43847656 503.09814453 C-686.21606359 500.2801128 -683.04933927 497.4004409 -679.87207031 494.53173828 C-677.80926119 492.6815214 -675.72916536 490.85650895 -673.63378906 489.04345703 C-669.41485416 485.37221347 -665.32688795 481.56351977 -661.2265625 477.76123047 C-657.71451788 474.51009224 -654.15644948 471.32626488 -650.53613281 468.19580078 C-647.80258308 465.78925513 -645.12516552 463.32290754 -642.44628906 460.85595703 C-638.51346503 457.23502982 -634.54414824 453.66636717 -630.50488281 450.16455078 C-627.95672256 447.92584453 -625.45218313 445.64185491 -622.94628906 443.35595703 C-619.15619824 439.89951933 -615.33572873 436.48751849 -611.46191406 433.12548828 C-609.16021142 431.10480747 -606.89864528 429.04283085 -604.63378906 426.98095703 C-601.23545354 423.9084893 -597.77038383 420.97153081 -594.19628906 418.10595703 C-588.43682481 413.44936891 -583.06680207 408.42761527 -577.66894531 403.36376953 C-574.62566966 400.51119293 -571.51684772 397.74669493 -568.36035156 395.02001953 C-565.20597283 392.27764128 -562.11176114 389.46870013 -559.00878906 386.66845703 C-556.53363576 384.4347821 -554.05260595 382.20777987 -551.57128906 379.98095703 C-547.79890631 376.58818513 -544.05547798 373.16556827 -540.32128906 369.73095703 C-536.45261085 366.17342604 -532.54294781 362.67306128 -528.57128906 359.23095703 C-525.8280545 356.81045595 -523.13746 354.33393294 -520.44628906 351.85595703 C-516.50999955 348.23188754 -512.53847728 344.65877597 -508.49316406 341.15673828 C-506.00554181 338.96820038 -503.57275455 336.72356512 -501.13378906 334.48095703 C-497.55367694 331.2106623 -493.91712669 328.07569087 -490.13378906 325.04345703 C-485.08244837 320.97211967 -480.37155014 316.61268291 -475.65380859 312.16674805 C-471.20611877 307.99879869 -466.59457494 304.15202525 -461.83691406 300.34033203 C-459.0817985 298.05340604 -456.59795099 295.59795846 -454.11035156 293.02783203 C-451.71964252 290.625899 -449.16226468 288.4374139 -446.59863281 286.22314453 C-440.39972147 280.84550457 -434.36157729 275.28528869 -428.32128906 269.73095703 C-424.45256155 266.1734785 -420.5429492 262.67306248 -416.57128906 259.23095703 C-413.8280545 256.81045595 -411.13746 254.33393294 -408.44628906 251.85595703 C-404.51344065 248.2350557 -400.54414894 244.66636778 -396.50488281 241.16455078 C-393.95672256 238.92584453 -391.45218313 236.64185491 -388.94628906 234.35595703 C-385.15619824 230.89951933 -381.33572873 227.48751849 -377.46191406 224.12548828 C-375.16021142 222.10480747 -372.89864528 220.04283085 -370.63378906 217.98095703 C-367.23545354 214.9084893 -363.77038383 211.97153081 -360.19628906 209.10595703 C-354.43682481 204.44936891 -349.06680207 199.42761527 -343.66894531 194.36376953 C-340.62566966 191.51119293 -337.51684772 188.74669493 -334.36035156 186.02001953 C-331.20597283 183.27764128 -328.11176114 180.46870013 -325.00878906 177.66845703 C-322.53363576 175.4347821 -320.05260595 173.20777987 -317.57128906 170.98095703 C-313.79890631 167.58818513 -310.05547798 164.16556827 -306.32128906 160.73095703 C-302.45261085 157.17342604 -298.54294781 153.67306128 -294.57128906 150.23095703 C-291.8280545 147.81045595 -289.13746 145.33393294 -286.44628906 142.85595703 C-282.50999955 139.23188754 -278.53847728 135.65877597 -274.49316406 132.15673828 C-272.00554181 129.96820038 -269.57275455 127.72356512 -267.13378906 125.48095703 C-263.55367694 122.2106623 -259.91712669 119.07569087 -256.13378906 116.04345703 C-251.07551884 111.96653453 -246.35958557 107.59970699 -241.6340332 103.14916992 C-238.21487635 99.94648036 -234.73987689 96.9004038 -231.07128906 93.98095703 C-225.53456111 89.55157467 -220.41150414 84.7312844 -215.27880859 79.84667969 C-211.37020279 76.13109145 -207.39230951 72.52461947 -203.3190918 68.99023438 C-200.69323588 66.69881481 -198.13299881 64.34397461 -195.57128906 61.98095703 C-191.90336226 58.60438328 -188.22204865 55.24529611 -184.50878906 51.91845703 C-180.57801242 48.39278458 -176.69442522 44.81955662 -172.82128906 41.23095703 C-168.09564343 36.85910669 -163.33601537 32.54458288 -158.44628906 28.35595703 C-157.05410156 27.14552734 -157.05410156 27.14552734 -155.63378906 25.91064453 C-143.02111703 15.01707397 -129.77178996 4.90162465 -115.44628906 -3.64404297 C-114.5677124 -4.16973877 -114.5677124 -4.16973877 -113.67138672 -4.70605469 C-103.74562235 -10.54838384 -93.51093871 -14.49538515 -82.44628906 -17.64404297 C-81.51816406 -17.91216797 -80.59003906 -18.18029297 -79.63378906 -18.45654297 C-53.25271951 -24.5444821 -21.26986772 -16.56132076 0 0 Z " fill="#000000" transform="translate(1114.4462890625,45.64404296875)"/>
<path d="M0 0 C0.73992187 0.34417969 1.47984375 0.68835937 2.2421875 1.04296875 C20.53211089 10.32192256 36.29777293 27.2340303 51.07324219 41.18652344 C53.0439606 43.04137599 55.02446493 44.8852253 57.0078125 46.7265625 C64.23720919 53.44846512 71.32476749 60.27484105 78.27148438 67.28857422 C81.6960424 70.73386919 85.18039761 74.03245183 88.890625 77.171875 C91.18653475 79.16166345 93.40330708 81.22273511 95.62304688 83.29663086 C101.00529051 88.32498419 106.49654312 93.09990198 112.2421875 97.71484375 C116.37792639 101.1417662 120.29277843 104.79479217 124.23046875 108.4453125 C126.45918393 110.50113722 128.70767919 112.51616957 131 114.5 C134.9308925 117.9067735 138.75196573 121.43002785 142.578125 124.953125 C145.35494057 127.50555143 148.14980717 130.02983288 151 132.5 C154.87817013 135.86322638 158.65527811 139.33335671 162.43310547 142.80810547 C167.25584891 147.24223628 172.1234112 151.6251824 177 156 C178.66692647 157.49971128 180.33359149 158.99971321 182 160.5 C183.2375 161.61375 183.2375 161.61375 184.5 162.75 C187 165 189.5 167.25 192 169.5 C192.82242188 170.23992187 193.64484375 170.97984375 194.4921875 171.7421875 C196.18592894 173.26708244 197.87861169 174.79315402 199.5703125 176.3203125 C205.72450123 181.87225646 211.91482631 187.37295293 218.22265625 192.75 C224.76194565 198.32672623 231.21954149 203.96077492 237.5546875 209.76953125 C239.68038898 211.70846982 241.82778049 213.61359885 244 215.5 C248.17868079 219.13065708 252.25816304 222.86718576 256.34765625 226.59765625 C258.52460996 228.56941844 260.71838674 230.51365337 262.9375 232.4375 C266.83402275 235.82404841 270.63352828 239.31337995 274.43286133 242.80786133 C279.25565901 247.24210316 284.12332571 251.62510571 289 256 C290.66692647 257.49971128 292.33359149 258.99971321 294 260.5 C295.2375 261.61375 295.2375 261.61375 296.5 262.75 C299 265 301.5 267.25 304 269.5 C304.83015625 270.24636719 305.6603125 270.99273437 306.515625 271.76171875 C308.13333968 273.21918811 309.74808381 274.67996359 311.359375 276.14453125 C316.71622397 281.00245801 322.17287965 285.72521818 327.67993164 290.41064453 C331.59452718 293.7556996 335.41591112 297.18244578 339.1875 300.6875 C342.79150315 304.03647787 346.46842801 307.2395103 350.3125 310.3125 C356.3488887 315.16785613 361.92950952 320.46764045 367.5625 325.77734375 C370.64039058 328.67569071 373.78480175 331.47953643 376.98828125 334.23828125 C379.6562669 336.5747114 382.26514554 338.97416251 384.875 341.375 C390.2163038 346.28799565 395.59795513 351.15379254 401 356 C402.66692647 357.49971128 404.33359149 358.99971321 406 360.5 C406.825 361.2425 407.65 361.985 408.5 362.75 C414.33333333 368 420.16666667 373.25 426 378.5 C427.23943359 379.61375 427.23943359 379.61375 428.50390625 380.75 C430.16222983 382.24482689 431.81592441 383.7448058 433.46484375 385.25 C437.63523861 389.04486167 441.85160327 392.72097891 446.25 396.25 C451.32583187 400.35081332 456.06552515 404.73632724 460.81201172 409.20654297 C464.23123939 412.4093284 467.70632063 415.45548038 471.375 418.375 C476.91172795 422.80438236 482.03478493 427.62467263 487.16748047 432.50927734 C491.07608628 436.22486558 495.05397955 439.83133756 499.12719727 443.36572266 C501.75305318 445.65714222 504.31329025 448.01198242 506.875 450.375 C512.21519167 455.28919348 517.59797199 460.15380767 523 465 C524.66692647 466.49971128 526.33359149 467.99971321 528 469.5 C528.825 470.2425 529.65 470.985 530.5 471.75 C533 474 535.5 476.25 538 478.5 C538.82242188 479.23992187 539.64484375 479.97984375 540.4921875 480.7421875 C542.18592894 482.26708244 543.87861169 483.79315402 545.5703125 485.3203125 C551.71218712 490.86114741 557.88701749 496.35464937 564.1875 501.71484375 C571.02228407 507.53459859 577.73699153 513.44877701 584.328125 519.54296875 C587.17975673 522.16530261 590.08130071 524.71988319 593.0078125 527.2578125 C596.22883999 530.07463262 599.39417636 532.95310146 602.5703125 535.8203125 C604.6560618 537.69145094 606.75817628 539.53924831 608.875 541.375 C612.84330549 544.82919304 616.71012559 548.39130558 620.57983398 551.95483398 C623.33438092 554.487107 626.10725075 556.99020203 628.9375 559.4375 C633.12032011 563.06144644 637.16271807 566.83255746 641.22021484 570.59521484 C644.73212744 573.84615512 648.29001418 577.02984313 651.91015625 580.16015625 C654.64370994 582.56670539 657.32096437 585.03321846 660 587.5 C665.64660559 592.69282162 671.37725288 597.76549387 677.21484375 602.7421875 C683.75458387 608.32115544 690.21392535 613.95606952 696.55078125 619.765625 C699.32229524 622.29402372 702.14127003 624.76184 704.97265625 627.22265625 C708.20263076 630.05432947 711.38190656 632.94202507 714.5703125 635.8203125 C716.6560618 637.69145094 718.75817628 639.53924831 720.875 641.375 C724.84330549 644.82919304 728.71012559 648.39130558 732.57983398 651.95483398 C735.33438092 654.487107 738.10725075 656.99020203 740.9375 659.4375 C745.12032011 663.06144644 749.16271807 666.83255746 753.22021484 670.59521484 C756.73212744 673.84615512 760.29001418 677.02984313 763.91015625 680.16015625 C766.64370638 682.56670226 769.32110702 685.03306703 772 687.5 C775.95930563 691.14487031 779.9512804 694.74260365 784.01953125 698.265625 C786.31133155 700.27264538 788.55996752 702.32402851 790.8125 704.375 C794.21083552 707.44746773 797.67590523 710.38442622 801.25 713.25 C807.00946426 717.90658812 812.37948699 722.92834177 817.77734375 727.9921875 C820.81794331 730.8422557 823.92348424 733.60488811 827.078125 736.328125 C829.41105074 738.35758073 831.70511245 740.427647 834 742.5 C836.93678465 745.15113994 839.88602542 747.78290171 842.875 750.375 C846.84330549 753.82919304 850.71012559 757.39130558 854.57983398 760.95483398 C857.33438092 763.487107 860.10725075 765.99020203 862.9375 768.4375 C866.5295869 771.54964209 870.01550137 774.7687396 873.5 778 C877.60586307 781.80712755 881.74128024 785.5631327 885.9765625 789.2265625 C888.51501171 791.45138092 891.00641776 793.72503319 893.5 796 C898.9967858 801.00801551 904.56000294 805.92210989 910.21875 810.74609375 C916.76251142 816.32756386 923.22308967 821.96800738 929.56640625 827.77734375 C934.01435836 831.83975908 938.5438193 835.79875628 943.18359375 839.640625 C961.49122755 854.89146268 976.11494309 872.76236309 987 894 C987.34514648 894.66580078 987.69029297 895.33160156 988.04589844 896.01757812 C1011.73402819 942.23723411 1013.70741454 995.60547333 998.13720703 1044.72167969 C990.1499409 1068.64374044 977.82711923 1092.91844995 960 1111 C959.33339355 1111.68030273 958.66678711 1112.36060547 957.97998047 1113.06152344 C950.20665892 1120.9739236 942.43918339 1128.79395919 934 1136 C932.84746762 1136.99717786 931.69511678 1137.99456558 930.54296875 1138.9921875 C924.34880505 1144.32133083 918.1112522 1149.58160457 911.765625 1154.73046875 C908.70632043 1157.24099976 905.69693691 1159.80519944 902.6875 1162.375 C897.63976321 1166.67770556 892.47349602 1170.79935443 887.23779297 1174.87011719 C882.62004894 1178.47552444 878.13358394 1182.21548227 873.67919922 1186.02001953 C870.36361009 1188.85143379 867.01428884 1191.63152838 863.625 1194.375 C857.91984597 1199.02027055 852.37621385 1203.84156796 846.828125 1208.671875 C843.21265713 1211.81941579 839.57919443 1214.9453653 835.9375 1218.0625 C835.36410889 1218.55339111 834.79071777 1219.04428223 834.19995117 1219.55004883 C833.04469482 1220.53885203 831.88934024 1221.52754049 830.73388672 1222.51611328 C828.40547278 1224.50880547 826.07865711 1226.50335862 823.75195312 1228.49804688 C822.0027877 1229.9976101 820.25334729 1231.49685209 818.50390625 1232.99609375 C816.15658474 1235.00799002 813.81033583 1237.02112758 811.46484375 1239.03515625 C804.20481838 1245.26735555 796.91959795 1251.46846351 789.60888672 1257.64111328 C786.90427711 1259.92546186 784.20227873 1262.21289508 781.5 1264.5 C780.41667901 1265.41668126 779.33334568 1266.33334793 778.25 1267.25 C777.71375 1267.70375 777.1775 1268.1575 776.625 1268.625 C719.74999999 1316.75000001 719.74999999 1316.75000001 718.12524414 1318.12475586 C717.04104762 1319.04217797 715.95690055 1319.95965852 714.87280273 1320.87719727 C712.17807689 1323.15778544 709.48252188 1325.43737815 706.78515625 1327.71484375 C705.71086274 1328.62230733 704.63664413 1329.5298596 703.5625 1330.4375 C703.03027832 1330.88722168 702.49805664 1331.33694336 701.94970703 1331.80029297 C698.50809418 1334.71258597 695.08327429 1337.64369489 691.66577148 1340.58422852 C686.11262832 1345.36212715 680.50788581 1350.05773704 674.8203125 1354.67578125 C671.63279623 1357.30261253 668.5020818 1359.98933284 665.375 1362.6875 C658.07933932 1368.97488285 650.64897717 1375.09183912 643.19970703 1381.19580078 C639.50269389 1384.22809014 635.81445621 1387.2710246 632.125 1390.3125 C627.5325153 1394.09795885 622.93137432 1397.87174195 618.3125 1401.625 C613.53821826 1405.52266855 608.86419555 1409.52990287 604.19726562 1413.5546875 C600.61478639 1416.63774318 596.99033734 1419.65544803 593.3125 1422.625 C588.62692813 1426.42559563 584.18788367 1430.4463798 579.75 1434.53125 C576.18815771 1437.72881296 572.47434167 1440.71388343 568.75 1443.71875 C565.91900422 1446.06718968 563.20616402 1448.50909902 560.5 1451 C556.10971431 1455.03633055 551.5882438 1458.84030529 546.94921875 1462.5859375 C543.58630845 1465.33862434 540.29086798 1468.16199967 537 1471 C530.49197096 1476.60323503 523.87898587 1482.06248014 517.19580078 1487.45605469 C509.352036 1493.78707932 501.56780118 1500.16531254 493.94262695 1506.75878906 C490.46923674 1509.75801499 486.9495364 1512.68343849 483.375 1515.5625 C478.91509873 1519.1788129 474.68353264 1523.00336934 470.48217773 1526.91210938 C466.37194292 1530.71455853 462.07701096 1534.24289362 457.71484375 1537.75390625 C454.89326505 1540.0883059 452.19409288 1542.51990598 449.5 1545 C445.11105254 1549.03510021 440.59137234 1552.83830304 435.953125 1556.58203125 C432.56641522 1559.35501188 429.25051116 1562.20231759 425.9375 1565.0625 C421.17144324 1569.17057079 416.34850469 1573.18017381 411.4140625 1577.0859375 C404.10240717 1582.88320467 396.94783235 1588.8659351 389.84106445 1594.91113281 C386.38916913 1597.8422482 382.89813333 1600.71689231 379.375 1603.5625 C374.67001048 1607.38786105 370.20631017 1611.42922652 365.74609375 1615.53515625 C363.08124834 1617.92707297 360.35168175 1620.19254884 357.5625 1622.4375 C353.56773299 1625.65945291 349.75470575 1629.00680102 346 1632.5 C341.44755936 1636.7307572 336.7538624 1640.72275348 331.9140625 1644.62109375 C328.56017391 1647.35905374 325.27816397 1650.17226739 322 1653 C316.07914502 1658.10000735 310.06981772 1663.07779922 304 1668 C302.16596746 1669.499145 300.33264019 1670.99915322 298.5 1672.5 C295.78924511 1674.71998173 293.07689655 1676.93764224 290.35546875 1679.14453125 C283.4054963 1684.79201985 276.5989624 1690.59298574 269.81591797 1696.43847656 C267.99699352 1698.0025853 266.17319921 1699.56081076 264.34765625 1701.1171875 C259.11360028 1705.58231923 253.90162956 1710.05663329 248.8125 1714.6875 C244.57291957 1718.53851005 240.17067888 1722.14843955 235.71875 1725.75 C233.07852271 1727.93501569 230.5327028 1730.19171391 228 1732.5 C223.78120377 1736.34069657 219.42281705 1739.95910346 214.98828125 1743.546875 C211.59250236 1746.33452094 208.26314728 1749.19196018 204.9375 1752.0625 C200.17139801 1756.17052096 195.34850751 1760.18017158 190.4140625 1764.0859375 C183.10319002 1769.88258396 175.94995157 1775.86521212 168.84326172 1781.90893555 C165.36815338 1784.85921686 161.85573776 1787.75642669 158.3125 1790.625 C153.91917078 1794.19815632 149.7157897 1797.9362423 145.53125 1801.75 C142.02200514 1804.86932876 138.36837877 1807.79749133 134.71875 1810.75 C132.07852271 1812.93501569 129.5327028 1815.19171391 127 1817.5 C122.70008209 1821.41891252 118.24080453 1825.09170869 113.71875 1828.75 C111.07852271 1830.93501569 108.5327028 1833.19171391 106 1835.5 C101.80270966 1839.32170863 97.46289769 1842.91474189 93.05078125 1846.484375 C89.47942771 1849.42925551 85.98802106 1852.45735149 82.5 1855.5 C77.39701833 1859.94576501 72.24708907 1864.31263671 66.98828125 1868.57421875 C63.97679364 1871.01883811 60.98250582 1873.48320479 57.9909668 1875.95214844 C49.65788777 1882.8292967 41.30856635 1889.68605173 32.89794922 1896.46826172 C31.6530525 1897.47295454 30.40982683 1898.4797222 29.16845703 1899.48876953 C1.57753855 1921.88521768 -23.31449712 1929.42159939 -59 1928 C-59.84175781 1927.97196289 -60.68351562 1927.94392578 -61.55078125 1927.91503906 C-77.33633167 1927.24463697 -89.90578507 1919.65900076 -102 1910 C-102.60714844 1909.5565625 -103.21429688 1909.113125 -103.83984375 1908.65625 C-123.16072631 1893.74507476 -132.49428383 1868.7945989 -135.53515625 1845.40625 C-138.15305251 1822.32521376 -132.69632523 1799.53264256 -118.5390625 1781.1328125 C-114.30347896 1775.83423201 -109.70336861 1770.88124577 -105 1766 C-104.44618652 1765.42427246 -103.89237305 1764.84854492 -103.32177734 1764.25537109 C-96.85967989 1757.5766065 -90.32903553 1751.1722737 -83.03125 1745.3984375 C-79.94585297 1742.95715686 -76.91474051 1740.45911752 -73.88623047 1737.94799805 C-67.84465577 1732.93884434 -61.76343931 1727.99807111 -55.5625 1723.1875 C-50.65048148 1719.37209893 -45.98873906 1715.37459628 -41.40625 1711.1640625 C-38.93518494 1708.94170854 -36.39633633 1706.83986762 -33.8125 1704.75 C-29.2905862 1701.09153509 -24.88228298 1697.32299501 -20.5 1693.5 C-15.32223722 1688.98625268 -10.08486915 1684.56947056 -4.74609375 1680.24609375 C-1.61010309 1677.68109427 1.477486 1675.06334912 4.5625 1672.4375 C9.16311758 1668.52643635 13.8210707 1664.70404532 18.55078125 1660.94921875 C25.86412916 1655.1288669 33.03724263 1649.14567828 40.15673828 1643.09106445 C43.63184662 1640.14078314 47.14426224 1637.24357331 50.6875 1634.375 C55.08370366 1630.79950585 59.28985859 1627.05908791 63.4765625 1623.2421875 C66.05082358 1620.95484096 68.69289489 1618.78451729 71.375 1616.625 C75.38826284 1613.38047483 79.22415384 1610.01252817 83 1606.5 C87.52991325 1602.28976858 92.20292164 1598.32362154 97.01953125 1594.4453125 C100.57290942 1591.52995898 104.03715263 1588.52178951 107.5 1585.5 C113.5702945 1580.20974711 119.73771087 1575.06232954 126 1570 C127.83426698 1568.50114184 129.66758952 1567.00112723 131.5 1565.5 C134.22381689 1563.2700196 136.94880801 1561.04164013 139.6796875 1558.8203125 C156.7568813 1544.9110619 173.36945065 1530.43713326 190 1516 C216.77624776 1492.75529239 216.77624776 1492.75529239 227.234375 1484.26953125 C230.29367736 1481.75900205 233.30312932 1479.19487558 236.3125 1476.625 C240.74848 1472.84200889 245.26621532 1469.19494844 249.875 1465.625 C256.85866948 1460.20319839 263.51025865 1454.4372208 270.15625 1448.60986328 C273.08589251 1446.05185709 276.04291924 1443.52617874 279 1441 C283.8266822 1436.8704221 288.63845359 1432.72416333 293.4375 1428.5625 C294.36925049 1427.75449951 294.36925049 1427.75449951 295.31982422 1426.93017578 C298.48945266 1424.18043085 301.6573488 1421.42870241 304.82421875 1418.67578125 C312.30127073 1412.1799546 319.81867284 1405.73681238 327.39404297 1399.35595703 C329.04875505 1397.95883467 330.69875874 1396.55632234 332.34765625 1395.15234375 C338.01460353 1390.33081518 343.72272159 1385.57600363 349.55078125 1380.94921875 C362.10643122 1370.95676367 374.2780553 1360.50053142 386.44921875 1350.046875 C388.84388299 1347.9903355 391.24256169 1345.93862686 393.64453125 1343.890625 C398.88064468 1339.42228669 404.09567332 1334.94582096 409.1875 1330.3125 C413.32427804 1326.55850824 417.60721231 1323.02853544 421.94921875 1319.515625 C425.52057229 1316.57074449 429.01197894 1313.54264851 432.5 1310.5 C437.59944103 1306.05731962 442.74651446 1301.69423306 448 1297.43359375 C451.80506497 1294.34693298 455.59154235 1291.23808773 459.375 1288.125 C460.10525391 1287.52413574 460.83550781 1286.92327148 461.58789062 1286.30419922 C466.58329192 1282.18621814 471.5393615 1278.02496204 476.47045898 1273.83032227 C479.76161683 1271.03461864 483.08561258 1268.28499371 486.4375 1265.5625 C492.45295528 1260.66295526 498.32925559 1255.60796182 504.20605469 1250.54394531 C506.53537025 1248.53923769 508.87075492 1246.54167493 511.20605469 1244.54394531 C516.67684996 1239.86306746 522.12696232 1235.15926613 527.5625 1230.4375 C532.72713281 1225.95245907 537.92153987 1221.50583792 543.15209961 1217.09790039 C547.16445415 1213.7148384 551.14736484 1210.29877354 555.125 1206.875 C559.18620876 1203.38176144 563.27518971 1199.93551293 567.4375 1196.5625 C572.54307465 1192.41939009 577.49800053 1188.1176955 582.45288086 1183.79711914 C586.93750851 1179.89578359 591.5048167 1176.11514838 596.125 1172.375 C599.63547639 1169.47504125 603.06832727 1166.49241862 606.5 1163.5 C611.63227656 1159.02465484 616.83185274 1154.65992874 622.125 1150.375 C625.63547639 1147.47504125 629.06832727 1144.49241862 632.5 1141.5 C637.63227656 1137.02465484 642.83185274 1132.65992874 648.125 1128.375 C651.63547639 1125.47504125 655.06832727 1122.49241862 658.5 1119.5 C663.63227656 1115.02465484 668.83185274 1110.65992874 674.125 1106.375 C677.63547639 1103.47504125 681.06832727 1100.49241862 684.5 1097.5 C689.63227656 1093.02465484 694.83185274 1088.65992874 700.125 1084.375 C703.63547639 1081.47504125 707.06832727 1078.49241862 710.5 1075.5 C715.63227656 1071.02465484 720.83185274 1066.65992874 726.125 1062.375 C730.29741503 1058.92822237 734.36422394 1055.36326661 738.44213867 1051.80566406 C742.18036083 1048.55254742 745.95935359 1045.3673971 749.8125 1042.25 C754.17082296 1038.72214035 758.32957987 1035.02264204 762.47265625 1031.24609375 C765.06962393 1028.93812402 767.73404013 1026.74444137 770.4375 1024.5625 C774.24087503 1021.48663412 777.90082652 1018.31246834 781.5 1015 C793.46172991 1004.03790474 806.10485878 993.69104538 821 987 C820.35933594 986.29875 819.71867187 985.5975 819.05859375 984.875 C811.14470509 976.19449023 811.14470509 976.19449023 807.75 972.25 C795.17030577 957.84801362 781.84529231 944.35408983 766.88671875 932.4140625 C761.87770413 928.22519777 757.18357573 923.69626182 752.43359375 919.21875 C749.37961432 916.34287149 746.25716613 913.56486475 743.078125 910.828125 C740.21485713 908.30931041 737.42214008 905.71681596 734.625 903.125 C729.91372695 898.75995514 725.17615736 894.42835458 720.390625 890.14453125 C718.76978296 888.6905406 717.1553772 887.22934894 715.546875 885.76171875 C711.35203234 881.94282897 707.1082868 878.24335025 702.6875 874.6875 C697.23623899 870.27861892 692.12286502 865.5647602 687 860.78515625 C684.03855832 858.02403653 681.01014362 855.34945349 677.94921875 852.69921875 C673.91904339 849.18593962 669.96853388 845.58253666 666 842 C664.33359149 840.49971321 662.66692647 838.99971128 661 837.5 C659.75863281 836.38238281 659.75863281 836.38238281 658.4921875 835.2421875 C656.85260121 833.76707382 655.21200345 832.29308348 653.5703125 830.8203125 C648.9796939 826.69902232 644.41552893 822.55126212 639.875 818.375 C636.00632178 814.81746901 632.09665875 811.31710425 628.125 807.875 C625.38176544 805.45449892 622.69117094 802.9779759 620 800.5 C616.06371049 796.87593051 612.09218822 793.30281893 608.046875 789.80078125 C605.55925274 787.61224335 603.12646548 785.36760809 600.6875 783.125 C597.08608829 779.83567762 593.42692725 776.67982364 589.625 773.625 C584.19108991 769.24055753 579.10173982 764.54499937 574 759.78515625 C571.04123978 757.02653661 568.01604915 754.35388674 564.95703125 751.70703125 C562.6144085 749.66366569 560.30726578 747.58319141 558 745.5 C555.06321535 742.84886006 552.11397458 740.21709829 549.125 737.625 C545.15669451 734.17080696 541.28987441 730.60869442 537.42016602 727.04516602 C534.66561908 724.512893 531.89274925 722.00979797 529.0625 719.5625 C524.87967989 715.93855356 520.83728193 712.16744254 516.77978516 708.40478516 C513.26787256 705.15384488 509.70998582 701.97015687 506.08984375 698.83984375 C503.35629362 696.43329774 500.67889298 693.96693297 498 691.5 C494.04069437 687.85512969 490.0487196 684.25739635 485.98046875 680.734375 C483.68866845 678.72735462 481.44003248 676.67597149 479.1875 674.625 C475.78916448 671.55253227 472.32409477 668.61557378 468.75 665.75 C462.99053574 661.09341188 457.62051301 656.07165823 452.22265625 651.0078125 C449.18205669 648.1577443 446.07651576 645.39511189 442.921875 642.671875 C440.58894926 640.64241927 438.29488755 638.572353 436 636.5 C433.06321535 633.84886006 430.11397458 631.21709829 427.125 628.625 C423.21005417 625.21520847 419.38822604 621.70660037 415.56738281 618.19238281 C410.74453089 613.75802997 405.87675977 609.37497099 401 605 C399.33307353 603.50028872 397.66640851 602.00028679 396 600.5 C395.175 599.7575 394.35 599.015 393.5 598.25 C387.66666667 593 381.83333333 587.75 376 582.5 C375.17371094 581.7575 374.34742187 581.015 373.49609375 580.25 C371.83777017 578.75517311 370.18407559 577.2551942 368.53515625 575.75 C364.34356268 571.9358485 360.10394348 568.23985671 355.6875 564.6875 C350.23623899 560.27861892 345.12286502 555.5647602 340 550.78515625 C337.04123978 548.02653661 334.01604915 545.35388674 330.95703125 542.70703125 C328.6144085 540.66366569 326.30726578 538.58319141 324 536.5 C321.06321535 533.84886006 318.11397458 531.21709829 315.125 528.625 C311.15669451 525.17080696 307.28987441 521.60869442 303.42016602 518.04516602 C300.66561908 515.512893 297.89274925 513.00979797 295.0625 510.5625 C290.87967989 506.93855356 286.83728193 503.16744254 282.77978516 499.40478516 C279.26787256 496.15384488 275.70998582 492.97015687 272.08984375 489.83984375 C269.35629362 487.43329774 266.67889298 484.96693297 264 482.5 C260.04069437 478.85512969 256.0487196 475.25739635 251.98046875 471.734375 C249.68866845 469.72735462 247.44003248 467.67597149 245.1875 465.625 C241.76770672 462.53363199 238.28041476 459.57540968 234.6875 456.6875 C229.23479676 452.27745248 224.12013668 447.56231202 218.99609375 442.78125 C216.06143494 440.0450396 213.05796386 437.39823878 210.0234375 434.7734375 C207.48498829 432.54861908 204.99358224 430.27496681 202.5 428 C199.38092989 425.15475772 196.25244609 422.3280042 193.0625 419.5625 C189.16597725 416.17595159 185.36647172 412.68662005 181.56713867 409.19213867 C176.74434099 404.75789684 171.87667429 400.37489429 167 396 C165.33307353 394.50028872 163.66640851 393.00028679 162 391.5 C160.7625 390.38625 160.7625 390.38625 159.5 389.25 C157 387 154.5 384.75 152 382.5 C151.16984375 381.75363281 150.3396875 381.00726563 149.484375 380.23828125 C147.86666032 378.78081189 146.25191619 377.32003641 144.640625 375.85546875 C139.28377603 370.99754199 133.82712035 366.27478182 128.32006836 361.58935547 C124.40547282 358.2443004 120.58408888 354.81755422 116.8125 351.3125 C113.20849685 347.96352213 109.53157199 344.7604897 105.6875 341.6875 C99.6511113 336.83214387 94.07049048 331.53235955 88.4375 326.22265625 C85.36227934 323.32682346 82.22120474 320.52478404 79.01953125 317.76953125 C76.30513851 315.39115618 73.65425983 312.94492818 71 310.5 C67.7214895 307.48069231 64.43418914 304.4779775 61.0625 301.5625 C56.87967989 297.93855356 52.83728193 294.16744254 48.77978516 290.40478516 C45.26787256 287.15384488 41.70998582 283.97015687 38.08984375 280.83984375 C35.35629362 278.43329774 32.67889298 275.96693297 30 273.5 C26.04069437 269.85512969 22.0487196 266.25739635 17.98046875 262.734375 C15.68866845 260.72735462 13.44003248 258.67597149 11.1875 256.625 C7.76770672 253.53363199 4.28041476 250.57540968 0.6875 247.6875 C-4.76520324 243.27745248 -9.87986332 238.56231202 -15.00390625 233.78125 C-17.93856506 231.0450396 -20.94203614 228.39823878 -23.9765625 225.7734375 C-26.51501171 223.54861908 -29.00641776 221.27496681 -31.5 219 C-34.61907011 216.15475772 -37.74755391 213.3280042 -40.9375 210.5625 C-44.3468858 207.6011649 -47.6779431 204.55847514 -51 201.5 C-54.95935496 197.85518185 -58.95127888 194.25739767 -63.01953125 190.734375 C-65.31133155 188.72735462 -67.55996752 186.67597149 -69.8125 184.625 C-73.35160002 181.42347567 -76.97103106 178.36853937 -80.6875 175.375 C-84.47194966 172.31342275 -87.96488014 169.15436499 -91.34765625 165.66015625 C-93.04363594 163.95615774 -94.80489696 162.38285917 -96.625 160.8125 C-105.94502137 152.74118052 -115.14744086 144.540939 -123 135 C-123.56332031 134.32066406 -124.12664062 133.64132813 -124.70703125 132.94140625 C-137.8984015 115.27498887 -137.33220413 89.91853384 -134.359375 69.20605469 C-130.47424504 45.3568466 -118.0716416 23.1920845 -98.4375 8.8125 C-69.48256932 -11.47071015 -31.99319019 -15.42358273 0 0 Z " fill="#000000" transform="translate(6135,33)"/>
<path d="M0 0 C-1.31632356 14.28983645 -3.25382101 28.4193852 -5.859375 42.52734375 C-6.00455881 43.31742891 -6.14974262 44.10751408 -6.29932594 44.92154121 C-10.66769779 68.53008887 -16.06820148 91.9244004 -21.37298584 115.33605957 C-22.469433 120.18408964 -23.55804955 125.03386395 -24.64652538 129.88368893 C-25.70869782 134.61404522 -26.77413358 139.34366146 -27.84069252 144.07303047 C-28.34321349 146.30173115 -28.84511314 148.53057203 -29.34633446 150.75956535 C-37.31007248 186.13260614 -37.31007248 186.13260614 -42 193 C-62.31494339 191.70192055 -82.14477902 184.9392783 -101.42404175 178.75061035 C-178.95379781 153.88927983 -270.2103933 139.40646857 -385.4375 170.875 C-406.65020162 181.8375193 -423.13920884 196.60800059 -430.63720703 219.98681641 C-437.88648373 244.61599007 -434.35599791 270.0509175 -422.6875 292.75 C-419.36218539 298.69219264 -415.44737847 303.8626544 -411 309 C-410.6086084 309.51812256 -410.2172168 310.03624512 -409.81396484 310.57006836 C-405.34998683 316.2636884 -399.7739824 319.90070011 -393.75 323.8125 C-392.67878906 324.51536133 -391.60757813 325.21822266 -390.50390625 325.94238281 C-381.55687346 331.75474731 -372.46707105 337.08877483 -363 342 C-362.14100098 342.45262207 -361.28200195 342.90524414 -360.39697266 343.37158203 C-328.63852656 360.04237181 -294.92487265 372.10241287 -261.32679749 384.45402527 C-171.2674771 417.57330075 -82.11253985 453.49828828 -1 540 C0.09054687 541.38058594 0.09054687 541.38058594 1.203125 542.7890625 C30.22913825 579.85465496 42.88745912 623.9343638 49 670 C49.11859375 670.87994629 49.2371875 671.75989258 49.359375 672.66650391 C55.54340593 721.13568684 50.72333958 772.80159582 35 819 C34.65316162 820.06565186 34.65316162 820.06565186 34.29931641 821.15283203 C28.39547504 839.25178197 18.80385638 856.38594609 8 872 C7.60071289 872.58040039 7.20142578 873.16080078 6.79003906 873.75878906 C-8.37395159 895.71757334 -26.74034085 916.73422052 -48 933 C-48.56734863 933.44375977 -49.13469727 933.88751953 -49.71923828 934.34472656 C-121.29941502 990.31463478 -216.58665873 1009.82250144 -321 1018 C-321.79216919 1018.04130035 -322.58433838 1018.08260071 -323.4005127 1018.12515259 C-338.10389419 1018.87625151 -352.77816958 1019.20337925 -367.5 1019.1875 C-368.55348633 1019.18689575 -369.60697266 1019.1862915 -370.69238281 1019.18566895 C-455.59718244 1019.05503637 -540.17013371 1006.19606385 -652.125 973.3125 C-652.94450134 973.04836304 -653.76400269 972.78422607 -654.6083374 972.51208496 C-663.45165188 969.65053346 -672.23169273 966.63410832 -680.9296875 963.35546875 C-682.05807541 962.9415966 -682.05807541 962.9415966 -683.20925903 962.5193634 C-687.24115035 960.9655132 -690.34482734 959.5751592 -693 956 C-693.43017578 954.05810547 -693.43017578 954.05810547 -693.3203125 951.9921875 C-693.28325195 951.20038086 -693.24619141 950.40857422 -693.20800781 949.59277344 C-693.13936523 948.7371582 -693.07072266 947.88154297 -693 947 C-692.90090332 945.66630371 -692.90090332 945.66630371 -692.79980469 944.30566406 C-691.65485016 930.94482021 -689.76213521 917.66594391 -687.5 904.453125 C-687.37517117 903.72145489 -687.25034233 902.98978477 -687.1217308 902.23594284 C-683.62637523 881.91237955 -679.18299727 861.78499503 -674.78308105 841.64215088 C-673.68981885 836.62979412 -672.60502207 831.61560688 -671.51953125 826.6015625 C-669.83018107 818.80276407 -668.13633465 811.00495826 -666.43847656 803.20800781 C-664.07123257 792.3361743 -661.71705295 781.46153898 -659.3671875 770.5859375 C-659.10574636 769.37613661 -659.10574636 769.37613661 -658.83902359 768.14189529 C-657.89238291 763.76132819 -656.94602894 759.38069927 -656 755 C-650.28980366 755.57282222 -645.14361146 756.67764576 -639.68359375 758.4140625 C-638.8909613 758.66031876 -638.09832886 758.90657501 -637.28167725 759.16029358 C-634.66486778 759.97535063 -632.05125861 760.8002171 -629.4375 761.625 C-627.57674107 762.20600505 -625.71581619 762.78647886 -623.85473633 763.36645508 C-613.91166313 766.47282541 -603.98886452 769.63973311 -594.078125 772.84765625 C-570.2071206 780.56780527 -546.33280961 787.87225191 -522 794 C-521.34269897 794.16653076 -520.68539795 794.33306152 -520.00817871 794.50463867 C-439.54443691 814.8585059 -343.68441278 824.81172697 -222.546875 786.26953125 C-217.65616565 783.2772229 -214.20964551 779.7405133 -211 775 C-210.31679688 773.99839844 -209.63359375 772.99679687 -208.9296875 771.96484375 C-196.60041634 752.87949596 -189.64092033 728.9143558 -194.17822266 706.25195312 C-198.26006129 687.70169893 -206.10297759 671.81872933 -218 657 C-218.74765625 656.02160156 -219.4953125 655.04320312 -220.265625 654.03515625 C-223.38828374 650.32183746 -227.17719792 647.65343145 -231.125 644.875 C-232.31198486 644.03195312 -232.31198486 644.03195312 -233.52294922 643.171875 C-281.18824068 609.64738063 -335.5337668 589.16845202 -389.70399475 568.87065125 C-391.00318515 568.38382264 -392.30237441 567.896991 -393.6015625 567.41015625 C-394.23882704 567.17138575 -394.87609158 566.93261524 -395.53266716 566.68660927 C-460.05991212 542.50239825 -525.21783667 516.08745499 -579 472 C-579.79736572 471.35708008 -579.79736572 471.35708008 -580.61083984 470.70117188 C-596.49739873 457.84632591 -611.79528331 443.24549966 -623.79052734 426.65380859 C-625.05386046 424.92635229 -626.35955472 423.23821483 -627.67578125 421.55078125 C-663.90688702 374.54861283 -674.21660993 313.95667569 -674.25 256 C-674.25101212 254.41395462 -674.25101212 254.41395462 -674.25204468 252.79586792 C-674.18752534 188.8656438 -658.14738301 129.63633893 -618 79 C-617.19691406 77.98421875 -616.39382813 76.9684375 -615.56640625 75.921875 C-611.24688557 70.56177655 -606.73691348 65.40128681 -602.09765625 60.31640625 C-600.29408387 58.32475183 -598.54893904 56.29978143 -596.8125 54.25 C-587.71144993 43.86977008 -577.83775855 34.55566587 -566.76660156 26.31787109 C-565.00646747 25.00482468 -563.26446545 23.6702695 -561.5234375 22.33203125 C-537.22407751 3.85756256 -510.25347335 -9.71286434 -482 -21 C-480.65446045 -21.54285645 -480.65446045 -21.54285645 -479.28173828 -22.09667969 C-430.64628319 -41.49147098 -377.03961457 -50.03442565 -325 -53 C-324.10587402 -53.05639648 -323.21174805 -53.11279297 -322.29052734 -53.17089844 C-242.27710095 -58.14689441 -160.38844848 -48.55678026 0 0 Z " fill="#000000" transform="translate(5734,516)"/>
<path d="M0 0 C1.21482056 0.00060425 2.42964111 0.0012085 3.68127441 0.00183105 C22.6412718 0.02737941 41.42911386 0.37972526 60.3125 2.1875 C60.9823291 2.25066406 61.6521582 2.31382812 62.34228516 2.37890625 C126.34858913 8.45347522 189.64138798 22.43063399 248.3125 49.1875 C249.05242188 49.52362305 249.79234375 49.85974609 250.5546875 50.20605469 C254.1516558 51.84335394 257.7387653 53.5000936 261.3125 55.1875 C255.8312686 103.31956326 241.12046299 150.70490957 228.6832962 197.38434219 C227.94159095 200.1721237 227.20270184 202.96063786 226.46453857 205.74935913 C225.2851246 210.20265972 224.09675716 214.65348346 222.90190887 219.10266685 C222.45858128 220.75843924 222.01802407 222.41495637 221.580513 224.07227516 C215.78556647 245.9992972 215.78556647 245.9992972 212.3125 251.1875 C208.34712321 252.75240437 205.44180908 251.92326329 201.46948242 250.68383789 C200.31071091 250.3289328 199.15193939 249.97402771 197.95805359 249.60836792 C196.70732559 249.21295807 195.4565976 248.81754822 194.16796875 248.41015625 C192.84992109 248.00304969 191.5314974 247.5971588 190.21272278 247.19241333 C187.4194125 246.33348542 184.62808259 245.46851118 181.83813477 244.59872437 C174.6251358 242.3522317 167.39659679 240.15651279 160.16796875 237.9609375 C159.461954 237.74623243 158.75593925 237.53152737 158.02853012 237.31031609 C142.90735221 232.71588677 127.76781417 228.52464151 112.3125 225.1875 C110.44851563 224.78168701 110.44851563 224.78168701 108.546875 224.36767578 C32.12860435 208.01562364 -51.94052817 206.31156556 -123.6875 241.1875 C-124.66203125 241.65414062 -125.6365625 242.12078125 -126.640625 242.6015625 C-144.48774594 251.73886095 -160.25617524 265.4629088 -174.6875 279.1875 C-175.25404297 279.72536133 -175.82058594 280.26322266 -176.40429688 280.81738281 C-185.00151415 289.03936243 -192.61654053 297.62775778 -199.6875 307.1875 C-200.3050415 308.00589355 -200.3050415 308.00589355 -200.93505859 308.84082031 C-257.98811662 384.5349765 -269.95112299 489.22483246 -260.6875 601.1875 C-260.59039734 601.90025085 -260.49329468 602.61300171 -260.39324951 603.34735107 C-252.91745768 657.42120763 -238.22802084 717.76513094 -203.6875 761.1875 C-202.95144531 762.13109375 -202.21539063 763.0746875 -201.45703125 764.046875 C-184.91789442 784.77202345 -165.82146227 802.07766471 -142.6875 815.1875 C-141.9641748 815.59967773 -141.24084961 816.01185547 -140.49560547 816.43652344 C-101.56704825 838.35434982 -58.73211114 848.68376605 -14.6875 853.1875 C-13.64770996 853.29497559 -12.60791992 853.40245117 -11.53662109 853.51318359 C1.28836537 854.62883524 14.2002421 854.43056347 27.0625 854.4375 C28.35562103 854.43850708 29.64874207 854.43951416 30.98104858 854.44055176 C51.2807764 854.42986943 71.17205349 853.70709212 91.3125 851.1875 C92.51293945 851.04828125 93.71337891 850.9090625 94.95019531 850.765625 C135.37194175 846.05502493 174.67002077 836.33406386 213.22729492 823.49169922 C214.06019547 823.21469681 214.89309601 822.9376944 215.75123596 822.65229797 C217.31482195 822.13086533 218.8774219 821.60646278 220.43882751 821.07853699 C226.56664215 819.02901285 231.67011589 818.05979915 238.125 818.125 C239.28644531 818.13402344 240.44789063 818.14304687 241.64453125 818.15234375 C242.52496094 818.16394531 243.40539063 818.17554688 244.3125 818.1875 C247.02005919 828.25487974 248.96254032 838.42317687 250.8671875 848.6640625 C251.20868479 850.48607181 251.55042174 852.30803621 251.89237976 854.12995911 C252.99673558 860.02303039 254.09265746 865.91765503 255.1875 871.8125 C255.46742357 873.31812941 255.46742357 873.31812941 255.75300217 874.85417557 C258.25233886 888.29784783 260.73647999 901.74427924 263.20953369 915.19281006 C263.92633953 919.09060457 264.64465695 922.9881144 265.36468506 926.88531494 C267.27351135 937.21925749 269.16367914 947.5562533 271.02227783 957.89935303 C271.582829 961.01574548 272.15118432 964.13054731 272.72674561 967.24420166 C275.6824437 983.26225515 278.28073342 998.82645734 277.3125 1015.1875 C267.36239151 1020.43140992 257.30773454 1024.71321513 246.75 1028.5625 C245.98972504 1028.84163239 245.22945007 1029.12076477 244.44613647 1029.40835571 C184.42265356 1051.40679718 121.13861338 1064.35813135 57.3125 1068.1875 C56.34298401 1068.24945053 56.34298401 1068.24945053 55.35388184 1068.31265259 C39.92715435 1069.28122964 24.51582933 1069.3884625 9.0625 1069.375 C7.77848297 1069.37439575 6.49446594 1069.3737915 5.17153931 1069.37316895 C-14.20411237 1069.3484453 -33.38992099 1069.01448973 -52.6875 1067.1875 C-54.11944629 1067.05707352 -55.55141331 1066.92687443 -56.98339844 1066.796875 C-122.55502191 1060.75911652 -189.92936462 1047.65647756 -249.6875 1019.1875 C-251.16839111 1018.49019775 -251.16839111 1018.49019775 -252.67919922 1017.77880859 C-284.78041387 1002.57077338 -314.53557125 983.06233168 -341.6875 960.1875 C-342.51096924 959.49938232 -342.51096924 959.49938232 -343.35107422 958.79736328 C-350.37707776 952.9187788 -357.11549074 946.92683304 -363.515625 940.359375 C-365.40120074 938.47379926 -367.31823348 936.75523705 -369.375 935.0625 C-372.59603488 932.38459044 -375.23834717 929.36789111 -377.9453125 926.1796875 C-379.57823643 924.31244265 -381.27679139 922.59487604 -383.0625 920.875 C-386.77238557 917.22282376 -389.99240824 913.23907538 -393.25 909.18359375 C-395.31516652 906.64515991 -397.43074184 904.16432883 -399.57836914 901.69580078 C-460.59380049 831.17787635 -492.27912277 737.98217287 -513.875 542.5 C-513.87439575 541.4351236 -513.8737915 540.37024719 -513.87316895 539.27310181 C-513.84449043 520.51368225 -513.32977133 501.87660336 -511.6875 483.1875 C-511.6266925 482.48955322 -511.56588501 481.79160645 -511.50323486 481.07250977 C-507.31258214 433.65642376 -498.35286454 386.50398921 -483.6875 341.1875 C-483.48447266 340.55992798 -483.28144531 339.93235596 -483.07226562 339.2857666 C-477.19402623 321.17198977 -470.74723175 303.46389134 -462.6875 286.1875 C-462.22230957 285.18170898 -461.75711914 284.17591797 -461.27783203 283.13964844 C-441.06270373 239.6024894 -415.50074749 198.29547761 -383.0234375 162.76953125 C-381.77874103 161.39370455 -380.53919069 160.01245741 -379.33984375 158.59692383 C-373.82098353 152.11725206 -367.81569769 146.12960352 -361.80078125 140.11547852 C-359.95021033 138.26272532 -358.10779924 136.40211294 -356.265625 134.54101562 C-349.37607946 127.6191739 -342.34669818 121.2564679 -334.6875 115.1875 C-333.52310477 114.19305263 -332.36564808 113.19035831 -331.21875 112.17578125 C-317.35407589 99.91889807 -302.27189792 89.14573486 -286.6875 79.1875 C-285.91744629 78.69427246 -285.14739258 78.20104492 -284.35400391 77.69287109 C-271.11393957 69.25463366 -257.58663236 61.48578107 -243.6875 54.1875 C-242.80513672 53.72102051 -241.92277344 53.25454102 -241.01367188 52.77392578 C-181.04293071 21.25508702 -112.96970339 5.60419421 -45.6875 1.1875 C-44.38127686 1.09992432 -43.07505371 1.01234863 -41.72924805 0.92211914 C-27.82436147 0.05608347 -13.92807471 -0.01282905 0 0 Z " fill="#FF6934" transform="translate(1822.6875,464.8125)"/>
<path d="M0 0 C78.87 0 157.74 0 239 0 C239.26640189 114.90484504 239.26640189 114.90484504 239.35620117 156.62426758 C239.3604607 158.60104341 239.3604607 158.60104341 239.36480628 160.61775412 C239.51954423 232.46116796 239.66348061 304.304603 240.17279625 742.76915359 C240.17298346 743.4642068 240.17317066 744.15926 240.17336354 744.87537541 C240.17505067 751.1620741 240.17671492 757.4487728 240.17830308 763.73547152 C240.18341192 783.8027083 240.19344043 803.86993771 240.20665412 823.9371707 C240.22264528 848.23681552 240.23158696 872.53645014 240.22964984 896.83610159 C240.22883773 908.86368051 240.23090784 920.8912392 240.24188805 932.91881371 C240.25098041 942.89685468 240.25318552 952.87486741 240.24646579 962.8529108 C240.24328034 967.86190474 240.24302334 972.87084414 240.25187778 977.87983251 C240.30132779 1007.6891496 239.70784872 1037.48261026 236.25 1067.125 C236.16729858 1067.84673401 236.08459717 1068.56846802 235.99938965 1069.31207275 C228.63048035 1133.03923782 209.96417971 1198.45713151 169 1249 C168.27425781 1249.9178125 167.54851562 1250.835625 166.80078125 1251.78125 C154.41029336 1267.2637986 140.55832969 1281.70190385 125 1294 C123.89119706 1294.91942984 122.78452842 1295.84143793 121.6796875 1296.765625 C111.67467228 1305.06803961 101.05927462 1312.18042481 90 1319 C89.16194824 1319.52126465 88.32389648 1320.0425293 87.46044922 1320.57958984 C73.60064236 1329.12044474 59.29030541 1335.45983553 44 1341 C42.91944336 1341.39316406 41.83888672 1341.78632812 40.72558594 1342.19140625 C6.01444109 1354.65656404 -31.14825638 1362.5215271 -68 1365 C-69.13703369 1365.08068726 -70.27406738 1365.16137451 -71.44555664 1365.24450684 C-82.97499648 1366.02111042 -94.46700279 1366.1634842 -106.01953125 1366.16796875 C-108.01323976 1366.17119638 -110.00694806 1366.17456147 -112.00065613 1366.17805481 C-116.15986681 1366.18399886 -120.31905687 1366.18589978 -124.47827148 1366.18530273 C-128.68144053 1366.18522176 -132.88449992 1366.19212565 -137.08764648 1366.20581055 C-195.45150091 1366.39268631 -195.45150091 1366.39268631 -221.6875 1361.6875 C-222.93805176 1361.4694873 -224.18860352 1361.25147461 -225.47705078 1361.02685547 C-243.27352131 1357.8131867 -258.86304548 1352.10317277 -275 1344 C-274.42221382 1329.82253552 -273.38197102 1315.73997377 -271.9375 1301.625 C-271.83184723 1300.58519989 -271.72619446 1299.54539978 -271.61734009 1298.47409058 C-269.06718409 1273.67079034 -265.39330243 1249.05710065 -261.53436279 1224.42883301 C-260.80759935 1219.76542734 -260.0963123 1215.09970258 -259.38423157 1210.43403625 C-258.68369538 1205.8588666 -257.97332514 1201.28526838 -257.25967407 1196.71212769 C-256.92490933 1194.56128275 -256.59277461 1192.41002651 -256.26351929 1190.2583313 C-251.78752015 1161.1166156 -251.78752015 1161.1166156 -245.25 1151.6875 C-244.63640625 1150.78386719 -244.0228125 1149.88023438 -243.390625 1148.94921875 C-242.93171875 1148.30597656 -242.4728125 1147.66273437 -242 1147 C-235.49807242 1147.59584633 -229.39516443 1148.7579594 -223.0625 1150.3125 C-174.02468491 1161.84612027 -118.1862181 1165.55590329 -71 1145 C-70.31534668 1144.70222656 -69.63069336 1144.40445312 -68.92529297 1144.09765625 C-59.63951014 1139.9677856 -52.09806463 1135.42240501 -45 1128 C-44.25621094 1127.26394531 -43.51242187 1126.52789063 -42.74609375 1125.76953125 C-20.73561681 1102.91691433 -11.49099354 1070.35734998 -6 1040 C-5.83684044 1039.12445152 -5.67368088 1038.24890305 -5.50557709 1037.3468228 C-4.92990121 1033.53595956 -4.65215749 1029.74434241 -4.44934082 1025.89980984 C-4.4073042 1025.11526347 -4.36526757 1024.33071709 -4.32195711 1023.52239659 C-3.86188199 1014.21818191 -3.83158212 1004.91665878 -3.81054688 995.6030426 C-3.80254476 993.6018138 -3.79413236 991.6005866 -3.78535074 989.59936106 C-3.76256385 984.13968417 -3.74553961 978.68000268 -3.72951297 973.22030233 C-3.71107734 967.29325232 -3.68719401 961.36622382 -3.66400242 955.43919086 C-3.6243898 945.12658296 -3.58816722 934.81396732 -3.5543232 924.50133896 C-3.51844001 913.57239825 -3.48055241 902.64346732 -3.44013786 891.71454239 C-3.43760037 891.02805212 -3.43506289 890.34156184 -3.4324485 889.63426884 C-3.4195249 886.14060558 -3.4065671 882.64694245 -3.39359639 879.15327936 C-3.30096615 854.18629524 -3.21272085 829.21929728 -3.12692261 804.25228882 C-3.04285474 779.79282811 -2.95675375 755.33337588 -2.86795044 730.87393188 C-2.86520255 730.11685984 -2.86245466 729.35978779 -2.85962349 728.57977416 C-2.83187194 720.93461346 -2.80407884 713.28945291 -2.77625715 705.64429246 C-2.71814254 689.67448871 -2.66031818 673.7046839 -2.60264587 657.73487854 C-2.59859164 656.61236583 -2.59859164 656.61236583 -2.5944555 655.46717609 C-2.46837222 620.55201875 -2.34538749 585.63685066 -2.22314453 550.72167969 C-2.21944267 549.66438297 -2.21944267 549.66438297 -2.21566602 548.58572672 C-2.18880241 540.91288459 -2.16194932 533.24004242 -2.13509864 525.56720024 C-2.13274353 524.89421256 -2.13038842 524.22122487 -2.12796195 523.52784362 C-2.1162286 520.17490363 -2.10449671 516.82196364 -2.09276662 513.46902364 C-2.00527515 488.46274437 -1.91684143 463.45646853 -1.82763672 438.45019531 C-1.82444765 437.55610045 -1.82125859 436.66200559 -1.81797288 435.74081695 C-1.72055529 408.43211124 -1.62269217 381.1234071 -1.52429676 353.8147049 C-1.51447815 351.08940125 -1.50466007 348.3640976 -1.49484253 345.63879395 C-1.49244339 344.9728684 -1.49004426 344.30694286 -1.48757242 343.62083775 C-1.45189423 333.71528442 -1.41654863 323.80972995 -1.38137817 313.9041748 C-1.18560353 258.80318608 -0.97114322 203.70232158 -0.71875 148.6015625 C-0.71325071 147.39942722 -0.70775143 146.19729194 -0.70208549 144.95872831 C-0.48077299 96.63909001 -0.23802739 48.31955944 0 0 Z " fill="#000000" transform="translate(4570,495)"/>
<path d="M0 0 C0.74362793 0.16628906 1.48725586 0.33257812 2.25341797 0.50390625 C25.91732697 5.99177864 47.3305785 17.61139734 66 33 C66.76957031 33.62777344 67.53914063 34.25554687 68.33203125 34.90234375 C73.04606086 38.8772712 77.11967694 43.21344438 81 48 C81.69996094 48.86238281 82.39992187 49.72476563 83.12109375 50.61328125 C98.16919658 69.88632803 109.29611647 94.07187829 111.1875 118.625 C111.26645508 119.60500977 111.34541016 120.58501953 111.42675781 121.59472656 C114.00759411 156.8885009 110.38528849 190.22332344 94.125 221.9375 C93.64353516 222.88455811 93.16207031 223.83161621 92.66601562 224.80737305 C89.12568371 231.50544125 84.91239822 237.24478836 80 243 C79.19691406 243.95132813 78.39382813 244.90265625 77.56640625 245.8828125 C55.15912423 270.95450817 24.58949347 287.99958632 -9 291 C-10.05791748 291.10151367 -10.05791748 291.10151367 -11.13720703 291.20507812 C-53.08046859 295.11251607 -99.80569008 286.47738479 -133.31640625 259.38671875 C-154.47029268 240.57300025 -169.65809916 217.53765669 -177 190 C-177.23976562 189.15743652 -177.47953125 188.31487305 -177.7265625 187.44677734 C-188.59571116 148.12477178 -184.11873217 101.54126618 -164 66 C-146.0659846 34.90045852 -113.17635275 12.9355814 -79 3 C-53.16344973 -3.72405051 -26.25130085 -5.9547492 0 0 Z " fill="#000000" transform="translate(4724,57)"/>
</svg>
